<?xml version="1.0" standalone="no"?>

<svg version="1.1" xmlns="http://www.w3.org/2000/svg" width="252.000000pt" height="235.000000pt" viewBox="0 0 252.000000 235.000000" preserveAspectRatio="xMidYMid meet">
  <defs>
    <radialGradient id="yellowBG" cx="50%" cy="42%" r="58%">
      <stop offset="0%" stop-color="#FDE68A"></stop>
      <stop offset="70%" stop-color="#F4C842"></stop>
      <stop offset="100%" stop-color="#D4A017"></stop>
    </radialGradient>
  </defs>
  <circle cx="126" cy="118" r="118" fill="url(#yellowBG)"></circle>
  <ellipse cx="126" cy="128" rx="88" ry="92" fill="#FFFFFF"></ellipse>

<g transform="translate(0.000000,235.000000) scale(0.100000,-0.100000)" fill="#1E293B" stroke="none">
<path d="M764 2261 c3 -5 24 -88 46 -183 22 -96 42 -182 46 -191 3 -10 2 -17&#xA;-4 -17 -6 0 -81 34 -168 75 -86 42 -159 74 -161 72 -2 -2 12 -70 32 -150 19&#xA;-80 36 -151 37 -159 4 -17 -9 -15 -116 17 -48 14 -90 24 -92 22 -4 -4 61 -301&#xA;72 -331 4 -10 -8 -33 -34 -63 -100 -120 -152 -245 -159 -385 -14 -239 70 -466&#xA;236 -642 157 -165 339 -254 581 -285 85 -11 108 -11 218 8 243 41 444 159 581&#xA;342 92 122 146 239 171 371 12 67 13 68 39 60 58 -16 149 -5 214 26 69 33 119&#xA;76 111 95 -6 17 -101 74 -136 82 -16 4 -28 10 -28 12 0 3 16 23 36 45 20 22&#xA;47 63 60 92 30 64 19 78 -64 84 -67 5 -183 -26 -226 -59 -31 -24 -35 -22 -61&#xA;41 -82 194 -208 310 -810 739 -380 271 -438 310 -421 282z m394 -478 c162&#xA;-116 377 -279 474 -360 89 -74 147 -144 188 -223 28 -55 61 -150 52 -150 -4 0&#xA;-36 11 -72 25 -193 72 -514 142 -700 152 -155 7 -352 -14 -572 -63 -16 -4 -28&#xA;-2 -28 2 0 5 34 46 75 91 l76 82 -20 78 c-10 43 -17 80 -15 82 2 2 45 -7 96&#xA;-21 127 -35 123 -34 123 -23 0 6 -13 61 -29 123 -16 62 -26 115 -23 118 4 5&#xA;160 -66 280 -127 48 -24 51 -24 43 4 -3 12 -17 72 -31 132 -13 61 -27 120 -31&#xA;133 -3 12 -3 22 0 22 4 0 55 -35 114 -77z m-354 -687 c49 -20 66 -51 66 -117&#xA;0 -53 -3 -59 -35 -88 -29 -25 -45 -31 -81 -31 -88 0 -123 36 -124 126 0 50 4&#xA;64 23 81 50 46 92 54 151 29z m439 -14 c46 -41 58 -97 33 -157 -18 -42 -61&#xA;-65 -122 -65 -39 0 -51 5 -80 34 -30 30 -34 40 -34 88 0 62 18 93 64 114 39&#xA;18 112 11 139 -14z m-750 -228 c94 -80 230 -122 308 -95 19 6 59 34 89 61 30&#xA;28 58 49 62 47 4 -1 29 -29 56 -62 63 -79 103 -98 214 -103 149 -7 475 60 616&#xA;125 18 9 36 13 39 9 11 -11 -26 -136 -63 -211 -87 -179 -250 -314 -454 -376&#xA;-97 -29 -280 -32 -380 -5 -253 68 -452 263 -518 506 -41 154 -38 164 31 104z"></path>
<path d="M702 1028 c-16 -16 -15 -73 1 -85 61 -49 134 9 97 78 -12 22 -78 27&#xA;-98 7z"></path>
<path d="M1110 1021 c-16 -30 -12 -59 10 -81 22 -22 60 -21 86 1 17 14 18 71&#xA;2 87 -20 20 -86 15 -98 -7z"></path>
<path d="M1412 607 c-50 -53 -184 -94 -263 -82 -58 10 -89 -33 -52 -71 14 -14&#xA;32 -16 113 -12 80 4 105 10 160 36 36 17 80 47 99 66 31 32 33 38 23 61 -15&#xA;32 -51 33 -80 2z"></path>
</g>
</svg>